<svg width="18" height="17" viewBox="0 0 18 17" fill="none" xmlns="http://www.w3.org/2000/svg">
<path d="M9.00008 0C4.03011 0 0 3.90187 0 8.71521C0 12.5658 2.57878 15.8327 6.15481 16.9851C6.6046 17.0657 6.76976 16.796 6.76976 16.5657C6.76976 16.358 6.76132 15.6715 6.75752 14.9433C4.25369 15.4704 3.72537 13.915 3.72537 13.915C3.31594 12.9076 2.72601 12.6397 2.72601 12.6397C1.90948 12.0988 2.78761 12.11 2.78761 12.11C3.69134 12.1713 4.16721 13.008 4.16721 13.008C4.96997 14.3404 6.27272 13.9552 6.78628 13.7325C6.86707 13.1692 7.1003 12.7848 7.35771 12.5671C5.35866 12.3468 3.25722 11.5995 3.25722 8.26005C3.25722 7.30854 3.60879 6.53105 4.18451 5.92071C4.09106 5.70121 3.78302 4.81484 4.27169 3.61433C4.27169 3.61433 5.02749 3.38011 6.74739 4.5077C7.46529 4.31461 8.23521 4.21779 9.00008 4.21445C9.76491 4.21779 10.5355 4.31454 11.2547 4.5077C12.9725 3.38019 13.7273 3.6144 13.7273 3.6144C14.2172 4.81478 13.909 5.70127 13.8155 5.92071C14.3925 6.53105 14.7417 7.30854 14.7417 8.26005C14.7417 11.6074 12.6363 12.3445 10.6321 12.5603C10.955 12.8307 11.2426 13.3611 11.2426 14.1741C11.2426 15.3402 11.2322 16.2787 11.2322 16.5657C11.2322 16.7978 11.3942 17.0695 11.8504 16.9839C15.4245 15.8302 18 12.5646 18 8.71529C18 3.90187 13.9705 0 9.00008 0ZM3.37085 12.415C3.35102 12.4583 3.28064 12.4713 3.21659 12.4415C3.15127 12.4131 3.11463 12.3541 3.13572 12.3106C3.15513 12.2661 3.22566 12.2536 3.29077 12.2835C3.35616 12.312 3.39343 12.3716 3.37085 12.415ZM3.81354 12.7975C3.77065 12.836 3.68669 12.8182 3.62974 12.7573C3.57089 12.6965 3.55985 12.6152 3.60337 12.5761C3.64767 12.5376 3.72902 12.5556 3.78801 12.6164C3.84694 12.6778 3.85833 12.7586 3.81354 12.7975ZM4.11729 13.2869C4.0621 13.324 3.97196 13.2893 3.91619 13.2117C3.86107 13.1343 3.86107 13.0414 3.91739 13.0041C3.97329 12.9668 4.0621 13.0004 4.11855 13.0773C4.17354 13.156 4.17361 13.249 4.11729 13.2869ZM4.63078 13.8538C4.58149 13.9065 4.47637 13.8923 4.39946 13.8204C4.32078 13.7502 4.2989 13.6505 4.3484 13.5978C4.39833 13.5449 4.50401 13.5598 4.58149 13.6312C4.65954 13.7013 4.68345 13.8017 4.63078 13.8538ZM5.29467 14.0451C5.27287 14.1134 5.17163 14.1445 5.06974 14.1155C4.96793 14.0855 4.90134 14.0056 4.92187 13.9367C4.94304 13.8679 5.04471 13.8356 5.14737 13.8667C5.24904 13.8964 5.31584 13.9757 5.29467 14.0451ZM6.05011 14.1264C6.05264 14.1983 5.96622 14.2578 5.85921 14.2592C5.75163 14.2615 5.66451 14.2034 5.66332 14.1326C5.66332 14.06 5.74784 14.001 5.85549 13.9992C5.9625 13.9972 6.05011 14.0549 6.05011 14.1264ZM6.79226 14.0989C6.80505 14.169 6.73073 14.241 6.62443 14.2603C6.52001 14.2787 6.42326 14.2353 6.40997 14.1658C6.39703 14.0939 6.47276 14.0219 6.57703 14.0034C6.68349 13.9854 6.77869 14.0276 6.79226 14.0989Z" fill="black"/>
</svg>
