<svg width="15" height="16" viewBox="0 0 15 16" fill="none" xmlns="http://www.w3.org/2000/svg">
<path d="M11.4844 0H3.51562C1.574 0 0 1.67893 0 3.75V12.25C0 14.3211 1.574 16 3.51562 16H11.4844C13.426 16 15 14.3211 15 12.25V3.75C15 1.67893 13.426 0 11.4844 0Z" fill="url(#paint0_radial_138_394)"/>
<path d="M11.4844 0H3.51562C1.574 0 0 1.67893 0 3.75V12.25C0 14.3211 1.574 16 3.51562 16H11.4844C13.426 16 15 14.3211 15 12.25V3.75C15 1.67893 13.426 0 11.4844 0Z" fill="url(#paint1_radial_138_394)"/>
<path d="M7.50053 1.75C5.90924 1.75 5.70949 1.75744 5.08453 1.78775C4.46074 1.81825 4.03494 1.92356 3.6624 2.07812C3.27697 2.23775 2.95008 2.45131 2.62441 2.79881C2.29846 3.14625 2.09824 3.49494 1.94813 3.90587C1.80281 4.30338 1.70396 4.75775 1.6759 5.42281C1.64795 6.0895 1.64062 6.30263 1.64062 8.00006C1.64062 9.6975 1.64766 9.90987 1.67602 10.5765C1.70473 11.2419 1.80346 11.6961 1.94824 12.0934C2.09801 12.5046 2.29822 12.8533 2.624 13.2006C2.94961 13.5483 3.2765 13.7624 3.66164 13.922C4.03447 14.0766 4.46033 14.1819 5.084 14.2124C5.70902 14.2427 5.90859 14.2501 7.49982 14.2501C9.09129 14.2501 9.29039 14.2427 9.91535 14.2124C10.5391 14.1819 10.9654 14.0766 11.3382 13.922C11.7235 13.7624 12.0499 13.5483 12.3755 13.2006C12.7014 12.8533 12.9016 12.5046 13.0518 12.0936C13.1958 11.6961 13.2947 11.2417 13.324 10.5766C13.3521 9.91 13.3594 9.6975 13.3594 8.00006C13.3594 6.30263 13.3521 6.08962 13.324 5.42294C13.2947 4.75756 13.1958 4.30344 13.0518 3.90606C12.9016 3.49494 12.7014 3.14625 12.3755 2.79881C12.0496 2.45119 11.7236 2.23762 11.3379 2.07819C10.9644 1.92356 10.5383 1.81819 9.91453 1.78775C9.28951 1.75744 9.09053 1.75 7.49871 1.75H7.50053ZM6.97488 2.87631C7.13092 2.87606 7.305 2.87631 7.50053 2.87631C9.06504 2.87631 9.25043 2.88231 9.86824 2.91225C10.4395 2.94012 10.7496 3.04194 10.9562 3.1275C11.2296 3.24075 11.4246 3.37619 11.6295 3.595C11.8346 3.81375 11.9615 4.02206 12.068 4.31375C12.1482 4.53375 12.2438 4.8645 12.2698 5.47388C12.2978 6.13275 12.3039 6.33062 12.3039 7.99862C12.3039 9.66663 12.2978 9.86456 12.2698 10.5234C12.2436 11.1327 12.1482 11.4635 12.068 11.6836C11.9618 11.9753 11.8346 12.1829 11.6295 12.4016C11.4244 12.6203 11.2297 12.7557 10.9562 12.869C10.7498 12.9549 10.4395 13.0565 9.86824 13.0844C9.25055 13.1143 9.06504 13.1208 7.50053 13.1208C5.93596 13.1208 5.75051 13.1143 5.13287 13.0844C4.56158 13.0563 4.2515 12.9544 4.04479 12.8689C3.77139 12.7556 3.57604 12.6202 3.37096 12.4014C3.16588 12.1827 3.03896 11.9749 2.9325 11.6831C2.85229 11.463 2.75672 11.1322 2.7307 10.5229C2.70264 9.864 2.69701 9.66613 2.69701 7.99706C2.69701 6.32806 2.70264 6.13119 2.7307 5.47231C2.75684 4.86294 2.85229 4.53219 2.9325 4.31187C3.03873 4.02019 3.16588 3.81188 3.37102 3.59313C3.57609 3.37438 3.77139 3.23894 4.04484 3.12544C4.25139 3.0395 4.56158 2.93794 5.13287 2.90994C5.6734 2.88387 5.88287 2.87606 6.97488 2.87475V2.87631ZM10.6283 3.91406C10.2401 3.91406 9.92514 4.24969 9.92514 4.66381C9.92514 5.07788 10.2401 5.41381 10.6283 5.41381C11.0164 5.41381 11.3314 5.07788 11.3314 4.66381C11.3314 4.24975 11.0164 3.91381 10.6283 3.91381V3.91406ZM7.50053 4.79038C5.83881 4.79038 4.4915 6.2275 4.4915 8.00006C4.4915 9.77262 5.83881 11.2091 7.50053 11.2091C9.1623 11.2091 10.5091 9.77262 10.5091 8.00006C10.5091 6.22756 9.16219 4.79038 7.50041 4.79038H7.50053ZM7.50053 5.91669C8.57918 5.91669 9.45369 6.84938 9.45369 8.00006C9.45369 9.15063 8.57918 10.0834 7.50053 10.0834C6.42182 10.0834 5.54742 9.15063 5.54742 8.00006C5.54742 6.84938 6.42182 5.91669 7.50053 5.91669Z" fill="white"/>
<defs>
<radialGradient id="paint0_radial_138_394" cx="0" cy="0" r="1" gradientUnits="userSpaceOnUse" gradientTransform="translate(3.98437 17.2323) rotate(-90) scale(15.8572 13.8267)">
<stop stop-color="#FFDD55"/>
<stop offset="0.1" stop-color="#FFDD55"/>
<stop offset="0.5" stop-color="#FF543E"/>
<stop offset="1" stop-color="#C837AB"/>
</radialGradient>
<radialGradient id="paint1_radial_138_394" cx="0" cy="0" r="1" gradientUnits="userSpaceOnUse" gradientTransform="translate(-2.51256 1.15256) rotate(79.3718) scale(7.0717 27.456)">
<stop stop-color="#3771C8"/>
<stop offset="0.128" stop-color="#3771C8"/>
<stop offset="1" stop-color="#6600FF" stop-opacity="0"/>
</radialGradient>
</defs>
</svg>
