<svg width="18" height="17" viewBox="0 0 18 17" fill="none" xmlns="http://www.w3.org/2000/svg">
<path d="M15.3369 14.485H12.6699V10.5399C12.6699 9.59923 12.6521 8.38822 11.2827 8.38822C9.89359 8.38822 9.68108 9.41318 9.68108 10.4715V14.4847H7.01404V6.37211H9.57442V7.48079H9.6102C9.86648 7.06703 10.2367 6.72658 10.6815 6.49579C11.1265 6.265 11.6292 6.15258 12.1364 6.17033C14.8395 6.17033 15.338 7.84971 15.338 10.0346L15.3369 14.485ZM4.00477 5.26322C3.69866 5.26322 3.3993 5.17757 3.14483 5.01702C2.89024 4.85636 2.6919 4.62812 2.57468 4.36099C2.45745 4.09386 2.42674 3.79996 2.48636 3.51636C2.5461 3.23276 2.69348 2.97232 2.90981 2.76778C3.12626 2.56334 3.402 2.42404 3.70226 2.36761C4.00241 2.31119 4.31359 2.34009 4.59653 2.4506C4.87935 2.56121 5.121 2.74854 5.29121 2.9889C5.46131 3.22936 5.5521 3.51189 5.55221 3.80112C5.55221 3.99302 5.51216 4.18312 5.43443 4.36056C5.35669 4.53791 5.24272 4.6991 5.09906 4.8349C4.9554 4.97059 4.78474 5.07833 4.59698 5.15186C4.40921 5.22528 4.20795 5.26322 4.00477 5.26322ZM5.33824 14.485H2.66839V6.37211H5.33824V14.485ZM16.6665 0.000109658H1.32829C0.9801 -0.00360933 0.644625 0.123368 0.39555 0.353201C0.146475 0.582928 0.004275 0.896704 0 1.22557V15.7732C0.00405 16.1021 0.14625 16.4161 0.395325 16.6462C0.6444 16.8762 0.979988 17.0034 1.32829 16.9999H16.6665C17.0155 17.004 17.352 16.8772 17.602 16.6471C17.8521 16.4172 17.9952 16.1028 18 15.7732V1.22451C17.9951 0.895004 17.8518 0.580909 17.6017 0.351076C17.3517 0.121349 17.0153 -0.00424687 16.6665 0.000109658Z" fill="#0077B5"/>
</svg>
